<?xml version="1.0" encoding="UTF-8" standalone="no"?>
<svg
   width="207.80205mm"
   height="183.35309mm"
   viewBox="0 0 207.80205 183.35309"
   version="1.1"
   id="svg863"
   inkscape:version="1.1-alpha (65d249f, 2021-01-17)"
   sodipodi:docname="indexImageBottom.svg"
   xmlns:inkscape="http://www.inkscape.org/namespaces/inkscape"
   xmlns:sodipodi="http://sodipodi.sourceforge.net/DTD/sodipodi-0.dtd"
   xmlns:xlink="http://www.w3.org/1999/xlink"
   xmlns="http://www.w3.org/2000/svg"
   xmlns:svg="http://www.w3.org/2000/svg"
   xmlns:rdf="http://www.w3.org/1999/02/22-rdf-syntax-ns#"
   xmlns:cc="http://creativecommons.org/ns#"
   xmlns:dc="http://purl.org/dc/elements/1.1/">
  <defs
     id="defs857">
    <clipPath
       clipPathUnits="userSpaceOnUse"
       id="clipPath1463">
      <path
         style="fill:#ffffff;fill-opacity:1;stroke:#ff0000;stroke-width:0.264583px;stroke-linecap:butt;stroke-linejoin:miter;stroke-opacity:1"
         d="m -14.566189,315.11076 c 9.8145562,-2.6298 12.4324114,23.66317 27.929665,19.51069 19.259355,-5.16054 12.141073,-22.5774 23.7336,-25.6836 17.388977,-4.65937 20.219299,3.51784 27.061038,14.9671 2.438974,2.87341 6.278576,2.32582 9.589632,0.41418 2.986689,-1.72437 3.427421,-7.54263 11.110328,-7.07019 18.940316,0 7.156852,18.59338 25.791506,23.58652 7.90182,2.11727 7.40599,-10.22305 22.18337,-10.22305 12.05467,0 14.1388,11.00584 28.53103,7.14946 14.84162,-3.97679 10.84426,-28.03967 31.87188,-28.03967 v 139.69148 c -7.97375,-4.60364 -12.90057,-4.67854 -21.49293,-2.3151 -7.5608,2.02589 -9.44549,10.96124 -14.37244,16.16805 -6.58693,6.96111 -28.98753,10.78709 -38.30996,10.78709 -6.53421,0 -18.08911,-3.39386 -23.841899,-9.14665 -4.891606,-4.89161 -9.206574,-9.23663 -18.300478,-6.79992 -9.933305,2.6616 -10.32642,28.62069 -20.196016,31.26523 -19.631901,5.26037 -25.20024,-3.98634 -27.004335,-7.11113 -3.966109,-8.91095 -6.613335,-13.53732 -14.416622,-13.53732 -8.6678224,0 -6.5865128,8.63287 -18.1075101,5.54585 -3.9422253,-1.02455 -8.1647379,-2.17503 -11.7598589,-4.25069 v -26.17486 c 8.1498916,-0.56068 6.9315874,4.14769 15.6352651,3.69858 4.3384471,-0.4895 7.2625364,-5.42504 15.6109479,-5.42504 8.113454,0 13.421979,12.40782 26.016281,9.03319 18.125757,-4.85677 9.648396,-14.91493 14.850567,-21.77002 11.122269,-14.08226 1.039434,-20.57138 1.039434,-33.82886 0.06022,-14.12372 8.761283,-11.34033 8.220983,-32.22246 0,-4.19354 -2.074201,-9.26031 -6.657181,-8.03233 -3.963377,1.06201 -9.118486,-1.66807 -11.121131,-3.67072 -11.469222,-11.46921 -17.452046,0.74647 -28.318571,0.74647 -5.105594,0 -11.7788942,-0.69631 -16.0078741,0.69773 -4.04070458,1.33199 -6.6333351,7.7075 -10.7501528,7.7075 -4.8791551,0.11345 -6.0085151,-0.88956 -8.5185681,-2.33876 z"
         id="path1465"
         sodipodi:nodetypes="ccccscccccccscscccccccccccccsccsccc" />
    </clipPath>
    <clipPath
       clipPathUnits="userSpaceOnUse"
       id="clipPath1511">
      <path
         style="fill:#ffffff;fill-opacity:1;stroke:#ff0000;stroke-width:0.264583px;stroke-linecap:butt;stroke-linejoin:miter;stroke-opacity:1"
         d="m -14.566189,315.11076 c 9.8145562,-2.6298 12.4324114,23.66317 27.929665,19.51069 19.259355,-5.16054 12.141073,-22.5774 23.7336,-25.6836 17.388977,-4.65937 20.219299,3.51784 27.061038,14.9671 2.438974,2.87341 6.278576,2.32582 9.589632,0.41418 2.986689,-1.72437 3.427421,-7.54263 11.110328,-7.07019 18.940316,0 7.156852,18.59338 25.791506,23.58652 7.90182,2.11727 7.40599,-10.22305 22.18337,-10.22305 12.05467,0 14.1388,11.00584 28.53103,7.14946 14.84162,-3.97679 10.84426,-28.03967 31.87188,-28.03967 v 139.69148 c -7.97375,-4.60364 -12.90057,-4.67854 -21.49293,-2.3151 -7.5608,2.02589 -9.44549,10.96124 -14.37244,16.16805 -6.58693,6.96111 -28.98753,10.78709 -38.30996,10.78709 -6.53421,0 -18.08911,-3.39386 -23.841899,-9.14665 -4.891606,-4.89161 -9.206574,-9.23663 -18.300478,-6.79992 -9.933305,2.6616 -10.32642,28.62069 -20.196016,31.26523 -19.631901,5.26037 -25.20024,-3.98634 -27.004335,-7.11113 -3.966109,-8.91095 -6.613335,-13.53732 -14.416622,-13.53732 -8.6678224,0 -6.2244276,6.74854 -18.1075101,6.74854 -7.2472099,0 -8.1647379,-3.37772 -11.7598589,-5.45338 v -26.17486 c 8.1498916,-0.56068 6.9315874,4.14769 15.6352651,3.69858 4.3384471,-0.4895 7.2625364,-5.42504 15.6109479,-5.42504 8.113454,0 13.421979,12.40782 26.016281,9.03319 18.125757,-4.85677 9.648396,-14.91493 14.850567,-21.77002 11.122269,-14.08226 1.039434,-20.57138 1.039434,-33.82886 0.06022,-14.12372 8.761283,-11.34033 8.220983,-32.22246 0,-4.19354 -2.074201,-9.26031 -6.657181,-8.03233 -3.963377,1.06201 -9.118486,-1.66807 -11.121131,-3.67072 -11.469222,-11.46921 -17.452046,0.74647 -28.318571,0.74647 -5.105594,0 -11.7788942,-0.69631 -16.0078741,0.69773 -4.04070458,1.33199 -6.6333351,7.7075 -10.7501528,7.7075 -4.8791551,0.11345 -6.0085151,-0.88956 -8.5185681,-2.33876 z"
         id="path1513"
         sodipodi:nodetypes="ccccscccccccscscccccccccccccsccsccc" />
    </clipPath>
    <linearGradient
       inkscape:collect="always"
       xlink:href="#linearGradient943-6-0-8-7-2"
       id="linearGradient1791"
       gradientUnits="userSpaceOnUse"
       x1="-84.17675"
       y1="519.42157"
       x2="195.63"
       y2="410.44128" />
    <linearGradient
       inkscape:collect="always"
       id="linearGradient943-6-0-8-7-2">
      <stop
         style="stop-color:#0672f7;stop-opacity:1"
         offset="0"
         id="stop939" />
      <stop
         style="stop-color:#0af9f0;stop-opacity:1"
         offset="0.59829235"
         id="stop4019" />
      <stop
         style="stop-color:#0ef995;stop-opacity:1"
         offset="1"
         id="stop941" />
    </linearGradient>
  </defs>
  <sodipodi:namedview
     id="base"
     pagecolor="#ffffff"
     bordercolor="#666666"
     borderopacity="1.0"
     inkscape:pageopacity="0.0"
     inkscape:pageshadow="2"
     inkscape:zoom="0.24748738"
     inkscape:cx="-515.17779"
     inkscape:cy="503.05596"
     inkscape:document-units="mm"
     inkscape:current-layer="layer1"
     inkscape:document-rotation="0"
     showgrid="false"
     inkscape:window-width="1618"
     inkscape:window-height="1027"
     inkscape:window-x="-8"
     inkscape:window-y="-8"
     inkscape:window-maximized="1"
     fit-margin-top="0"
     fit-margin-left="0"
     fit-margin-right="0"
     fit-margin-bottom="0"
     objecttolerance="10.0"
     gridtolerance="10.0"
     guidetolerance="10.0"
     inkscape:pagecheckerboard="0" />
  <metadata
     id="metadata860">
    <rdf:RDF>
      <cc:Work
         rdf:about="">
        <dc:format>image/svg+xml</dc:format>
        <dc:type
           rdf:resource="http://purl.org/dc/dcmitype/StillImage" />
      </cc:Work>
    </rdf:RDF>
  </metadata>
  <g
     inkscape:label="Warstwa 1"
     inkscape:groupmode="layer"
     id="layer1"
     transform="translate(-3.5272712,-0.34808111)">
    <path
       style="fill:#ffffff;fill-opacity:1;stroke:none;stroke-width:0.264583px;stroke-linecap:butt;stroke-linejoin:miter;stroke-opacity:1"
       d="m 3.5272712,7.8533249 c 9.8145598,-2.6298 12.4324098,23.6631701 27.9296698,19.5106901 19.25935,-5.16053 12.14107,-22.5773901 23.7336,-25.6836001 17.38897,-4.65936 20.2193,3.51784 27.06104,14.9671101 2.43897,2.8734 6.27857,2.32581 9.58963,0.41417 2.98668,-1.72436 3.42742,-7.5426401 11.110319,-7.0702001 18.94032,0 7.15686,18.5933801 25.79151,23.5865201 7.90182,2.11729 7.40599,-10.22305 22.18337,-10.22305 12.05467,0 14.1388,11.00586 28.53103,7.14947 14.84162,-3.9768 10.84426,-28.0396801 31.87188,-28.0396801 V 142.15624 c -7.97375,-4.60365 -12.90057,-4.67854 -21.49293,-2.31511 -7.5608,2.02591 -9.44549,10.96124 -14.37244,16.16806 -6.58693,6.96111 -28.98753,10.78708 -38.30996,10.78708 -6.53421,0 -18.08911,-3.39385 -23.8419,-9.14664 -4.8916,-4.89161 -9.20657,-9.23663 -18.300479,-6.79993 -9.9333,2.66162 -10.32642,28.6207 -20.19601,31.26525 -19.6319,5.26035 -25.20024,-3.98636 -27.00434,-7.11114 -3.96611,-8.91096 -6.61333,-13.53733 -14.41662,-13.53733 -8.66782,0 -6.22443,6.74856 -18.10751,6.74856 -7.2472098,0 -8.1647398,-3.37774 -11.7598598,-5.45338 v -26.17487 c 8.1498898,-0.56069 6.9315898,4.14768 15.6352698,3.69858 4.33844,-0.48951 7.26253,-5.42505 15.61094,-5.42505 8.11346,0 13.42198,12.40783 26.01629,9.0332 18.12575,-4.85678 9.64839,-14.91494 14.85056,-21.77001 11.12227,-14.08226 1.03944,-20.57138 1.03944,-33.828865 0.0602,-14.12373 8.76128,-11.34032 8.22098,-32.22247 0,-4.19352 -2.0742,-9.26031 -6.65718,-8.03231 -3.96338,1.06199 -9.11849,-1.66807 -11.12113,-3.67072 -11.46922,-11.46922 -17.45205,0.74646 -28.31857,0.74646 -5.1056,0 -11.7789,-0.69631 -16.00788,0.69774 -4.0407,1.33199 -6.63333,7.70748 -10.75015,7.70748 -4.8791598,0.11347 -6.0085198,-0.88956 -8.5185698,-2.33874 z"
       id="path844"
       sodipodi:nodetypes="ccccscccccccscscccccccccccccsccsccc" />
    <path
       style="fill:url(#linearGradient1791);fill-opacity:1;stroke:none;stroke-width:0.264583px;stroke-linecap:butt;stroke-linejoin:miter;stroke-opacity:1"
       d="M 195.6413,453.68999 195.63,410.44128 c -9.32156,0 -14.02322,8.14548 -15.65738,10.97593 -1.52367,2.63908 -6.91808,14.33297 -17.74002,8.08492 -14.39166,-8.30903 -18.84144,6.14613 -27.26148,14.56618 -11.82838,11.82837 -17.77344,4.54358 -29.80056,-5.21175 -11.459703,-9.29509 -19.006114,4.87213 -28.353747,6.54129 -8.585147,1.53301 -13.491684,-6.57424 -21.920813,-4.31567 l -69.462189,-19.86541 -36.74956,41.42678 50.51394042,43.56493 132.71549858,-5.76801 92.22619,-27.97024 z"
       id="path1459"
       sodipodi:nodetypes="cssssscc"
       clip-path="url(#clipPath1511)"
       transform="translate(18.093461,-307.25744)" />
  </g>
</svg>
