<?xml version="1.0" encoding="UTF-8" standalone="no"?>
<svg
   width="267.45526mm"
   height="281.28296mm"
   viewBox="0 0 267.45526 281.28296"
   version="1.1"
   id="svg849"
   inkscape:version="1.1-alpha (65d249f, 2021-01-17)"
   sodipodi:docname="indexImageTop.svg"
   inkscape:export-filename="C:\01 Programming\Web\Games Website\images\indexImageTop.jpg.png"
   inkscape:export-xdpi="96"
   inkscape:export-ydpi="96"
   xmlns:inkscape="http://www.inkscape.org/namespaces/inkscape"
   xmlns:sodipodi="http://sodipodi.sourceforge.net/DTD/sodipodi-0.dtd"
   xmlns:xlink="http://www.w3.org/1999/xlink"
   xmlns="http://www.w3.org/2000/svg"
   xmlns:svg="http://www.w3.org/2000/svg"
   xmlns:rdf="http://www.w3.org/1999/02/22-rdf-syntax-ns#"
   xmlns:cc="http://creativecommons.org/ns#"
   xmlns:dc="http://purl.org/dc/elements/1.1/">
  <defs
     id="defs843">
    <linearGradient
       inkscape:collect="always"
       id="linearGradient10176">
      <stop
         style="stop-color:#0672f7;stop-opacity:1"
         offset="0"
         id="stop10170" />
      <stop
         style="stop-color:#0bf9e1;stop-opacity:1"
         offset="1"
         id="stop10174" />
    </linearGradient>
    <linearGradient
       inkscape:collect="always"
       id="linearGradient943-6-0-8-7-2">
      <stop
         style="stop-color:#0672f7;stop-opacity:1"
         offset="0"
         id="stop939" />
      <stop
         style="stop-color:#0af9f0;stop-opacity:1"
         offset="0.59829235"
         id="stop4019" />
      <stop
         style="stop-color:#0ef995;stop-opacity:1"
         offset="1"
         id="stop941" />
    </linearGradient>
    <linearGradient
       inkscape:collect="always"
       xlink:href="#linearGradient943-6-0-8-7-2"
       id="linearGradient945"
       x1="-71.361267"
       y1="53.333973"
       x2="170.33009"
       y2="-71.282524"
       gradientUnits="userSpaceOnUse"
       spreadMethod="pad" />
    <linearGradient
       inkscape:collect="always"
       xlink:href="#linearGradient10176"
       id="linearGradient9493"
       x1="145.91289"
       y1="-87.309914"
       x2="157.93259"
       y2="-99.32962"
       gradientUnits="userSpaceOnUse" />
    <linearGradient
       inkscape:collect="always"
       xlink:href="#linearGradient10176"
       id="linearGradient12883"
       x1="191.17679"
       y1="-84.246803"
       x2="194.71974"
       y2="-87.789764"
       gradientUnits="userSpaceOnUse" />
    <linearGradient
       inkscape:collect="always"
       xlink:href="#linearGradient10176"
       id="linearGradient12891"
       x1="188.02448"
       y1="-73.51236"
       x2="191.59328"
       y2="-77.081154"
       gradientUnits="userSpaceOnUse" />
    <linearGradient
       inkscape:collect="always"
       xlink:href="#linearGradient10176"
       id="linearGradient12899"
       x1="194.47986"
       y1="-77.271484"
       x2="198.10034"
       y2="-80.89196"
       gradientUnits="userSpaceOnUse" />
    <linearGradient
       inkscape:collect="always"
       xlink:href="#linearGradient10176"
       id="linearGradient14667"
       x1="184.39713"
       y1="-80.634384"
       x2="187.98061"
       y2="-84.217865"
       gradientUnits="userSpaceOnUse" />
  </defs>
  <sodipodi:namedview
     id="base"
     pagecolor="#ffffff"
     bordercolor="#666666"
     borderopacity="1.0"
     inkscape:pageopacity="0.0"
     inkscape:pageshadow="2"
     inkscape:zoom="0.64"
     inkscape:cx="482.03125"
     inkscape:cy="124.21875"
     inkscape:document-units="mm"
     inkscape:current-layer="layer1"
     inkscape:document-rotation="0"
     showgrid="false"
     inkscape:window-width="1618"
     inkscape:window-height="1027"
     inkscape:window-x="-8"
     inkscape:window-y="-8"
     inkscape:window-maximized="1"
     units="mm"
     fit-margin-top="0"
     fit-margin-left="0"
     fit-margin-right="0"
     fit-margin-bottom="0"
     showguides="true"
     inkscape:guide-bbox="true"
     objecttolerance="10.0"
     gridtolerance="10.0"
     guidetolerance="10.0"
     inkscape:pagecheckerboard="0">
    <sodipodi:guide
       position="267.45447,244.69088"
       orientation="1,0"
       id="guide1902" />
    <sodipodi:guide
       position="-0.011693041,195.52619"
       orientation="1,0"
       id="guide1904" />
    <sodipodi:guide
       position="168.95532,283.41603"
       orientation="0,-1"
       id="guide9192" />
    <sodipodi:guide
       position="168.46658,283.10543"
       orientation="1,0"
       id="guide9194" />
    <sodipodi:guide
       position="172.51531,287.04327"
       orientation="0,-1"
       id="guide9196" />
    <sodipodi:guide
       position="172.08869,286.08807"
       orientation="1,0"
       id="guide9198" />
  </sodipodi:namedview>
  <metadata
     id="metadata846">
    <rdf:RDF>
      <cc:Work
         rdf:about="">
        <dc:format>image/svg+xml</dc:format>
        <dc:type
           rdf:resource="http://purl.org/dc/dcmitype/StillImage" />
      </cc:Work>
    </rdf:RDF>
  </metadata>
  <g
     inkscape:label="Warstwa 1"
     inkscape:groupmode="layer"
     id="layer1"
     transform="translate(34.630582,99.449892)">
    <circle
       style="fill:url(#linearGradient12899);fill-opacity:1;stroke:none;stroke-width:1.6974"
       id="path839"
       cx="196.57588"
       cy="-79.467735"
       r="2.1218545" />
    <circle
       style="fill:url(#linearGradient12883);fill-opacity:1;stroke:none;stroke-width:1.6974"
       id="circle843"
       cx="193.22113"
       cy="-86.339699"
       r="2.1218545" />
    <circle
       style="fill:url(#linearGradient12891);fill-opacity:1;stroke:none;stroke-width:1.6974"
       id="circle845"
       cx="190.06882"
       cy="-75.579414"
       r="2.1218545" />
    <circle
       style="fill:url(#linearGradient14667);fill-opacity:1;stroke:none;stroke-width:1.6974"
       id="circle847"
       cx="186.48244"
       cy="-82.680664"
       r="2.1218545" />
    <path
       style="fill:#ffffff;fill-opacity:1;stroke:none;stroke-width:0.339479px;stroke-linecap:butt;stroke-linejoin:miter;stroke-opacity:1"
       d="m -34.630582,63.963632 v 40.676918 c 6.454516,-1.72948 6.308677,-8.75154 16.245251,-8.75154 8.094373,0 9.8440386,13.39106 8.4882465,18.45094 -2.5281125,9.43504 5.469966,25.15174 16.5864293,19.64808 12.4581832,-6.16793 11.7759242,19.8585 23.6399172,19.8585 12.357297,0 14.256006,-20.64052 23.749842,-23.67019 10.556792,-2.82868 13.905024,12.07665 21.03668,16.19411 7.228431,4.42606 10.571177,3.81505 16.246116,3.81505 14.99801,-1.25885 15.00479,-5.16279 18.7752,-10.67358 2.87882,-4.20767 5.66482,-5.46644 11.74522,-5.22962 9.59092,0.37354 12.98836,7.70744 13.03118,13.93137 0.11111,16.15189 0.19902,21.86065 15.59343,30.74861 8.06449,4.65604 22.56215,1.63378 30.43189,-2.90982 6.05385,-3.49519 11.08026,-10.0176 16.97525,-8.43804 9.99893,2.67921 9.00227,11.58948 16.24524,13.53023 9.85832,2.64153 12.58465,-3.18755 18.66458,-4.83046 v -27.89022 c -5.48104,0 -7.68696,1.92504 -14.42109,1.92504 -6.08486,0 -7.10558,-2.78857 -13.82166,-2.78857 -7.73223,0 -11.4162,3.63727 -17.58018,3.63727 -13.86871,-2.40369 -21.45081,-15.47329 -16.9557,-31.34553 2.18387,-9.13747 2.41386,-21.312203 -1.59212,-26.049907 -4.35829,-5.154381 -4.55825,-15.523666 -1.57845,-20.684822 4.9395,-8.555471 13.09989,-5.8001 16.32562,-5.8001 10.99928,0 13.31546,0.05594 21.04221,-7.215508 6.84697,-6.44347 18.89641,-3.228734 23.52628,-1.988171 3.81761,1.022929 5.05509,0.879007 5.05509,0.879007 V 16.618385 c -5.27383,0 -7.75042,6.547105 -12.48114,6.547105 -6.66538,0 -13.51205,-7.795181 -20.08594,-3.999748 -4.39892,2.539724 -2.1705,7.561697 -10.25161,7.561697 -4.39137,0 -8.12625,-3.612764 -12.18921,-5.420411 L 45.667018,3.9275707 -25.318658,22.445574 -34.630582,63.963632"
       id="path847"
       sodipodi:nodetypes="cccccccccccccccccccccccccccccccccccc" />
    <path
       style="fill:url(#linearGradient945);fill-opacity:1;stroke:none;stroke-width:0.340014;stroke-linecap:butt;stroke-linejoin:miter;stroke-miterlimit:4;stroke-dasharray:none;stroke-opacity:1"
       d="m -34.642275,-14.625482 c 3.086334,-0.171461 10.695321,6.4649147 14.381775,6.893571 3.686454,0.4286576 9.859122,1.2859727 14.9172795,-1.1145107 5.05815835,-2.4004823 9.0875385,-3.0863323 11.5737517,-2.1432853 2.4862132,0.943046 11.0593618,8.6588799 16.0317868,7.9730255 4.972429,-0.6858493 8.649764,-2.6633951 8.865855,-9.2884165 2.008269,-6.124676 7.868006,-1.122707 6.229887,-10.244254 6.943939,-2.469234 4.756204,-9.516306 4.756204,-9.516306 7.999521,-2.411826 8.432497,-4.152197 8.182255,-7.472636 -0.814452,-6.815653 -3.825369,-5.966176 -0.696254,-17.644193 0.775886,-2.895649 4.949966,-7.894548 6.612472,-10.710846 1.95942,-3.319274 1.881722,-5.458883 4.628754,-15.710948 1.335694,-4.984878 4.309402,-8.805507 7.48274,-9.280493 3.218935,-0.24164 6.914783,1.168387 9.255246,4.173619 2.576032,3.293938 7.002205,15.128713 13.518554,11.366498 12.187639,-8.938007 24.882169,-11.336889 37.685669,-11.017722 6.1298,0.342926 6.20145,1.506616 5.09886,5.621505 -0.58894,2.197985 -2.86984,11.010404 1.50247,12.982228 4.3723,1.971825 10.60561,1.992157 15.81904,-5.282402 1.11035,1.923172 5.17378,8.460876 13.62323,1.953605 2.11545,0.553413 3.44845,0.976759 5.5028,1.804918 2.87258,9.71098 10.28616,7.974245 12.16788,6.092519 0.62328,4.120964 3.89722,13.428101 11.11985,13.470411 8.47315,0.04963 8.54582,-15.928698 11.57688,-19.808463 3.03107,-3.879764 8.37446,3.078006 10.05273,9.341406 0.98655,3.681858 7.0975,3.86553 9.70246,2.361555 3.01664,-1.428219 5.09068,-3.178344 7.87399,-3.075723 0,2.489821 0,33.75725 0,33.75725 v 3.637278 c 0,0 -4.28907,7.805523 -9.90486,7.115866 -4.50919,-1.097255 -7.20367,-3.902945 -7.20367,-7.516563 0,-6.129802 -2.90052,-11.292049 -7.07306,-13.701066 0,0 -9.33252,3.092509 -12.47371,14.815576 -0.9009,3.36221 -4.50722,10.394837 -12.20612,8.091204 -7.69889,-2.303631 -8.73986,-9.092676 -8.73986,-9.092676 0,0 -7.12242,2.554851 -9.92414,13.010997 -1.71064,6.3841724 -0.33488,7.9610804 4.16602,14.5195399 4.5009,6.5584595 7.95757,8.4432921 7.95883,20.3599681 0.001,11.916259 -7.24353,18.172747 -10.7035,19.209944 -5.1421,1.067323 -12.09099,-2.106919 -19.80398,-14.57435 -9.82118,-15.875151 -16.60583,-1.964931 -17.66069,1.971827 -2.14079,7.989559 -8.82114,15.818298 -22.11694,8.141963 C 90.512318,27.24697 93.810988,50.445073 77.882519,50.445073 40.25398,50.445073 62.110695,16.432289 43.08595,12.496135 19.716134,7.6610027 17.11843,49.108061 17.11843,49.108061 c 0,0 -2.821449,18.545673 -10.8878988,13.888507 C -5.4080943,55.768256 0.26597481,35.956589 -13.049393,36.138452 c -15.291071,0.208845 -6.103888,24.572812 -21.581189,27.82518 z"
       id="path849"
       sodipodi:nodetypes="cssssccccsssccccssccccsssccccccccscssscsssssccscc" />
    <rect
       style="fill:#ffffff;fill-opacity:1;stroke:none;stroke-width:0.304461"
       id="rect839"
       width="6.2967873"
       height="6.2967873"
       x="120.50467"
       y="-126.5374"
       transform="rotate(41.44973)" />
    <rect
       style="fill:#ffffff;fill-opacity:1;stroke:none;stroke-width:0.354488"
       id="rect841"
       width="7.4823079"
       height="7.1836042"
       x="162.67848"
       y="-178.13939"
       transform="matrix(0.66105266,0.75033951,-0.55267003,0.83340017,0,0)"
       inkscape:transform-center-x="1.2940042"
       inkscape:transform-center-y="-0.078318607" />
    <path
       style="fill:#ffffff;fill-opacity:1;stroke:none;stroke-width:0.339479px;stroke-linecap:butt;stroke-linejoin:miter;stroke-opacity:1"
       d="m 232.80354,-18.861503 -4.69272,4.198563 4.71386,4.7988089 -0.0212,-8.9973719"
       id="path845"
       sodipodi:nodetypes="cccc" />
    <path
       style="fill:url(#linearGradient9493);fill-opacity:1;stroke:none;stroke-width:0.264583px;stroke-linecap:butt;stroke-linejoin:miter;stroke-opacity:1"
       d="m 148.88473,-88.104249 3.52794,0.82074 0.89981,-3.88855 3.89623,0.90161 0.82074,-3.52794 -3.89164,-0.9067 0.9053,-3.89007 -3.52794,-0.82074 -0.90454,3.88684 -3.89179,-0.90056 -0.82074,3.52795 3.8874,0.90467 z"
       id="path9233" />
  </g>
</svg>
