<?xml version="1.0" encoding="UTF-8" standalone="no"?>
<svg
   xmlns:dc="http://purl.org/dc/elements/1.1/"
   xmlns:cc="http://creativecommons.org/ns#"
   xmlns:rdf="http://www.w3.org/1999/02/22-rdf-syntax-ns#"
   xmlns:svg="http://www.w3.org/2000/svg"
   xmlns="http://www.w3.org/2000/svg"
   xmlns:sodipodi="http://sodipodi.sourceforge.net/DTD/sodipodi-0.dtd"
   xmlns:inkscape="http://www.inkscape.org/namespaces/inkscape"
   width="267.45526mm"
   height="281.28296mm"
   viewBox="0 0 267.45526 281.28296"
   version="1.1"
   id="svg849"
   inkscape:version="1.0.2-2 (e86c870879, 2021-01-15)"
   sodipodi:docname="indexImageTop.svg"
   inkscape:export-filename="C:\01 Programming\Web\Games Website\images\indexImageTop.jpg.png"
   inkscape:export-xdpi="96"
   inkscape:export-ydpi="96">
  <defs
     id="defs843" />
  <sodipodi:namedview
     id="base"
     pagecolor="#ffffff"
     bordercolor="#666666"
     borderopacity="1.0"
     inkscape:pageopacity="0.0"
     inkscape:pageshadow="2"
     inkscape:zoom="2"
     inkscape:cx="922.55991"
     inkscape:cy="888.08337"
     inkscape:document-units="mm"
     inkscape:current-layer="layer1"
     inkscape:document-rotation="0"
     showgrid="false"
     inkscape:window-width="1618"
     inkscape:window-height="1027"
     inkscape:window-x="-8"
     inkscape:window-y="-8"
     inkscape:window-maximized="1"
     units="mm"
     fit-margin-top="0"
     fit-margin-left="0"
     fit-margin-right="0"
     fit-margin-bottom="0"
     showguides="true"
     inkscape:guide-bbox="true">
    <sodipodi:guide
       position="267.45447,244.69088"
       orientation="1,0"
       id="guide1902" />
    <sodipodi:guide
       position="-0.011693041,195.52619"
       orientation="1,0"
       id="guide1904" />
  </sodipodi:namedview>
  <metadata
     id="metadata846">
    <rdf:RDF>
      <cc:Work
         rdf:about="">
        <dc:format>image/svg+xml</dc:format>
        <dc:type
           rdf:resource="http://purl.org/dc/dcmitype/StillImage" />
        <dc:title></dc:title>
      </cc:Work>
    </rdf:RDF>
  </metadata>
  <g
     inkscape:label="Warstwa 1"
     inkscape:groupmode="layer"
     id="layer1"
     transform="translate(34.630582,99.449892)">
    <g
       id="g1424"
       transform="matrix(1.2830717,0,0,1.2830717,-15.716731,-101.3507)"
       inkscape:export-xdpi="94.996155"
       inkscape:export-ydpi="94.996155">
      <g
         id="g837"
         transform="rotate(12.308702,128.05017,9.582281)"
         style="fill:#1fa5b3;fill-opacity:1">
        <rect
           style="fill:#1fa5b3;fill-opacity:1;stroke:none;stroke-width:1.28789"
           id="rect831"
           width="2.8230343"
           height="9.0506058"
           x="128.43971"
           y="1.2058622" />
        <rect
           style="fill:#1fa5b3;fill-opacity:1;stroke:none;stroke-width:1.28789"
           id="rect833"
           width="2.8230343"
           height="9.0506058"
           x="4.3196478"
           y="-134.37653"
           transform="rotate(90)" />
      </g>
      <circle
         style="fill:#1fdc75;fill-opacity:1;stroke:none;stroke-width:1.32292"
         id="path839"
         cx="165.45654"
         cy="17.055138"
         r="1.6537303" />
      <circle
         style="fill:#1fa5b3;fill-opacity:1;stroke:none;stroke-width:1.32292"
         id="circle843"
         cx="162.84192"
         cy="11.699266"
         r="1.6537303" />
      <circle
         style="fill:#1fa5b3;fill-opacity:1;stroke:none;stroke-width:1.32292"
         id="circle845"
         cx="160.38507"
         cy="20.085613"
         r="1.6537303" />
      <circle
         style="fill:#1fdc75;fill-opacity:1;stroke:none;stroke-width:1.32292"
         id="circle847"
         cx="157.58992"
         cy="14.551045"
         r="1.6537303" />
      <path
         style="fill:#ffffff;fill-opacity:1;stroke:none;stroke-width:0.264583px;stroke-linecap:butt;stroke-linejoin:miter;stroke-opacity:1"
         d="m -14.741071,128.84263 v 31.70276 c 5.0305182,-1.34792 4.916855,-6.82077 12.6612186,-6.82077 6.3085898,0 7.6722434,10.43672 6.6155666,14.38029 -1.9703597,7.35348 4.2631803,19.60275 12.9271258,15.31331 9.709655,-4.80716 9.177916,15.47731 18.424471,15.47731 9.631026,0 11.110841,-16.0868 18.510144,-18.44806 8.227749,-2.20462 10.837293,9.41229 16.395561,12.62136 5.633692,3.44958 8.23896,2.97337 12.661892,2.97337 11.689147,-0.98112 11.694426,-4.02377 14.633007,-8.31877 2.243695,-3.27937 4.415045,-4.26043 9.153985,-4.07586 7.47497,0.29113 10.12287,6.00702 10.15624,10.85783 0.0866,12.58845 0.15511,17.03774 12.1532,23.96484 6.2853,3.62882 17.58448,1.27333 23.718,-2.26786 4.71825,-2.72408 8.63573,-7.80751 13.23016,-6.57643 7.79297,2.08812 7.01619,9.0326 12.66121,10.54518 7.68338,2.05876 9.80822,-2.48431 14.5468,-3.76476 V 194.6693 c -4.27181,0 -5.99106,1.50034 -11.23951,1.50034 -4.74241,0 -5.53794,-2.17336 -10.77232,-2.17336 -6.02634,0 -8.89755,2.83482 -13.70163,2.83482 -10.80899,-1.87339 -16.71833,-12.05957 -13.21493,-24.43007 1.70206,-7.12156 1.88131,-16.6103 -1.24087,-20.30277 -3.39676,-4.01722 -3.5526,-12.09883 -1.23021,-16.12133 3.84975,-6.66796 10.20979,-4.52048 12.72386,-4.52048 8.57261,0 10.3778,0.0436 16.39987,-5.62362 5.33639,-5.02191 14.72748,-2.51641 18.3359,-1.54954 2.97537,0.79725 3.93984,0.68508 3.93984,0.68508 V 91.942707 c -4.11032,0 -6.04052,5.10268 -9.72755,5.10268 -5.19486,0 -10.53102,-6.075405 -15.65457,-3.117322 -3.42843,1.979409 -1.69165,5.893433 -7.9899,5.893433 -3.42254,0 -6.33343,-2.815715 -9.50002,-4.224558 L 47.841246,82.051744 -7.4835466,96.484299 -14.741071,128.84263"
         id="path847"
         sodipodi:nodetypes="cccccccccccccccccccccccccccccccccccc" />
      <path
         style="fill:#00e0a8;fill-opacity:1;stroke:none;stroke-width:0.265;stroke-linecap:butt;stroke-linejoin:miter;stroke-miterlimit:4;stroke-dasharray:none;stroke-opacity:1"
         d="m -14.750184,67.591872 c 2.405426,-0.133633 8.3357154,5.038623 11.2088629,5.372709 2.87314728,0.334087 7.6839989,1.002261 11.6262243,-0.868627 3.9422258,-1.870887 7.0826428,-2.405425 9.0203468,-1.670433 1.937704,0.734991 8.619442,6.748555 12.494849,6.214014 3.87541,-0.534537 6.74145,-2.075796 6.909867,-7.239203 1.565204,-4.773448 6.132164,-0.875015 4.855447,-7.984163 5.411965,-1.924471 3.706889,-7.416816 3.706889,-7.416816 6.234664,-1.879728 6.572117,-3.236138 6.377083,-5.82402 -0.634767,-5.311982 -2.981415,-4.649917 -0.542646,-13.751526 0.60471,-2.25681 3.857903,-6.15285 5.153626,-8.347815 1.527132,-2.586975 1.466576,-4.254543 3.607557,-12.244794 1.041013,-3.8851127 3.35866,-6.8628332 5.831895,-7.233027 2.508773,-0.1883298 5.389242,0.9106169 7.213351,3.2528333 2.007707,2.5672287 5.457376,11.7910117 10.536086,8.8588177 9.498795,-6.966101 19.392656,-8.8357406 29.371446,-8.586989 4.77744,0.26727 4.83328,1.174226 3.97395,4.381287 -0.45901,1.713065 -2.2367,8.581285 1.17099,10.118085 3.40768,1.5368 8.2658,1.552646 12.32904,-4.116997 0.86538,1.498881 4.03234,6.594235 10.61767,1.5226 1.64874,0.431319 2.68765,0.761266 4.28877,1.406716 2.23883,7.568541 8.01682,6.214965 9.4834,4.748386 0.48577,3.211795 3.03741,10.465589 8.66658,10.498564 6.6038,0.03868 6.66044,-12.414503 9.02279,-15.438313 2.36235,-3.023809 6.52688,2.398935 7.83489,7.280502 0.7689,2.869565 5.53165,3.012715 7.5619,1.840548 2.35111,-1.113125 3.96757,-2.477137 6.13683,-2.397156 0,1.940516 0,26.309714 0,26.309714 v 2.834821 c 0,0 -3.34282,6.083466 -7.71965,5.545961 -3.51437,-0.855178 -5.61439,-3.041876 -5.61439,-5.858256 0,-4.777443 -2.26061,-8.800794 -5.5126,-10.678333 0,0 -7.27358,2.410239 -9.72176,11.546959 -0.70214,2.620438 -3.51283,8.101525 -9.5132,6.30612 -6.00036,-1.795403 -6.81167,-7.086647 -6.81167,-7.086647 0,0 -5.55107,1.991199 -7.73467,10.140507 -1.33324,4.975694 -0.261,6.204704 3.24691,11.316234 3.50791,5.11153 6.20197,6.58053 6.20295,15.868145 9.9e-4,9.28729 -5.64546,14.16347 -8.34209,14.97184 -4.00765,0.83185 -9.42347,-1.64209 -15.43482,-11.358952 -7.65443,-12.37277 -12.94225,-1.531427 -13.76438,1.536802 -1.66849,6.2269 -6.87502,12.32846 -17.237493,6.34568 -12.957886,-7.48124 -10.386969,10.59889 -22.801294,10.59889 -29.326919,0 -12.292239,-26.508873 -27.119739,-29.576631 C 27.615655,84.961505 25.591057,117.2645 25.591057,117.2645 c 0,0 -2.19898,14.45412 -8.485807,10.82442 -9.0709081,-5.6336 -4.648654,-21.07441 -15.026381,-20.93267 -11.9175501,0.16277 -4.7572465,19.15155 -16.81994,21.68638 z"
         id="path849"
         sodipodi:nodetypes="cssssccccsssccccssccccsssccccccccscssscsssssccscc" />
      <rect
         style="fill:#ffffff;fill-opacity:1;stroke:none;stroke-width:0.237291"
         id="rect839"
         width="4.907588"
         height="4.907588"
         x="155.38907"
         y="-47.522839"
         transform="rotate(41.44973)" />
      <rect
         style="fill:#ffffff;fill-opacity:1;stroke:none;stroke-width:0.276281"
         id="rect841"
         width="5.8315587"
         height="5.5987549"
         x="182.57092"
         y="-94.280067"
         transform="matrix(0.66105266,0.75033951,-0.55267004,0.83340016,0,0)"
         inkscape:transform-center-x="1.2940042"
         inkscape:transform-center-y="-0.078318607" />
      <path
         style="fill:#ffffff;fill-opacity:1;stroke:none;stroke-width:0.264583px;stroke-linecap:butt;stroke-linejoin:miter;stroke-opacity:1"
         d="m 193.69165,64.290403 -3.65741,3.272275 3.67388,3.740094 -0.0165,-7.012369"
         id="path845"
         sodipodi:nodetypes="cccc" />
    </g>
  </g>
</svg>
