<?xml version="1.0" encoding="UTF-8" standalone="no"?>
<svg
   width="146.35876mm"
   height="27.401701mm"
   viewBox="0 0 146.35877 27.401701"
   version="1.1"
   id="svg5"
   sodipodi:docname="playAgain.svg"
   inkscape:version="1.1-alpha (65d249f, 2021-01-17)"
   xmlns:inkscape="http://www.inkscape.org/namespaces/inkscape"
   xmlns:sodipodi="http://sodipodi.sourceforge.net/DTD/sodipodi-0.dtd"
   xmlns="http://www.w3.org/2000/svg"
   xmlns:svg="http://www.w3.org/2000/svg">
  <sodipodi:namedview
     id="namedview7"
     pagecolor="#505050"
     bordercolor="#eeeeee"
     borderopacity="1"
     objecttolerance="10.0"
     gridtolerance="10.0"
     guidetolerance="10.0"
     inkscape:pageshadow="0"
     inkscape:pageopacity="0"
     inkscape:pagecheckerboard="0"
     inkscape:document-units="mm"
     showgrid="false"
     inkscape:zoom="1.0098765"
     inkscape:cx="230.22618"
     inkscape:cy="140.11615"
     inkscape:window-width="1618"
     inkscape:window-height="1027"
     inkscape:window-x="-8"
     inkscape:window-y="-8"
     inkscape:window-maximized="1"
     inkscape:current-layer="layer1"
     fit-margin-top="0"
     fit-margin-left="0"
     fit-margin-right="0"
     fit-margin-bottom="0" />
  <defs
     id="defs2" />
  <g
     inkscape:label="Layer 1"
     inkscape:groupmode="layer"
     id="layer1"
     transform="translate(-58.158228,-141.5299)">
    <g
       aria-label="Play Again"
       transform="matrix(2.6965764,0,0,2.7513267,-214.81914,-279.14704)"
       id="text1290"
       style="font-size:10.6902px;line-height:1.25;font-family:'Kristen ITC';-inkscape-font-specification:'Kristen ITC, Normal';fill:#ffffff;stroke-width:0.267256">
      <path
         d="m 108.75283,155.91151 q 0,1.41457 -0.7621,2.28106 -0.75687,0.86128 -1.96265,0.86128 -0.73078,0 -1.23188,-0.261 -0.46456,-0.25055 -0.46456,-0.56896 v -0.0261 q 0,-0.21923 0.13049,-0.37582 0.1305,-0.1566 0.31841,-0.1566 0.0887,0 0.5011,0.17748 0.41759,0.17747 0.75688,0.17747 0.70989,0 1.17446,-0.56896 0.46456,-0.56896 0.46456,-1.45111 0,-0.90825 -0.70467,-1.46677 -0.70468,-0.55852 -1.85304,-0.55852 -0.33407,0 -0.95001,0.0783 0.094,1.49809 0.094,2.30717 0,1.75386 -0.0731,3.13189 -0.0887,1.63903 -0.39671,2.86568 -0.10961,0.43847 -0.46978,0.43847 -0.5533,0 -0.5533,-0.74644 0,0.0835 0.30797,-2.38546 0.10439,-0.85083 0.10439,-2.2132 0,-1.82172 -0.0835,-3.09014 -0.36539,0.18792 -0.80908,0.61594 -0.33406,0.32363 -0.5272,0.32363 -0.21401,0 -0.37061,-0.15659 -0.16181,-0.1566 -0.16181,-0.36539 0,-0.22967 0.43847,-0.65248 1.24753,-1.19534 3.31458,-1.19534 1.73299,0 2.75085,0.80907 1.01787,0.80386 1.01787,2.17145 z"
         id="path8028" />
      <path
         d="m 111.08609,161.60112 q 0,0.35495 -0.047,0.48544 -0.0887,0.22968 -0.39149,0.22968 -0.49588,0 -0.58462,-0.80386 -0.15137,-1.35715 -0.15137,-3.71651 0,-2.63601 0.0731,-3.24151 0.0835,-0.66292 0.5272,-0.66292 0.52198,0 0.52198,0.6316 0,0.15659 -0.0574,1.24754 -0.0574,1.08572 -0.0574,2.00441 0,0.80385 0.0835,2.08271 0.0835,1.27364 0.0835,1.74342 z"
         id="path8030" />
      <path
         d="m 117.03147,158.50054 q 0,1.43024 -0.41759,2.99096 -0.20879,0.78298 -0.62116,0.78298 -0.4228,0 -0.4228,-0.48023 0,-0.10961 0.0104,-0.16181 -0.53243,0.28709 -1.10139,0.28709 -1.00742,0 -1.57638,-0.56896 -0.56374,-0.56896 -0.56374,-1.59205 0,-1.03874 0.61072,-1.64424 0.61071,-0.61072 1.62336,-0.61072 0.88215,0 1.48765,0.58984 -0.0992,-2.06183 -1.52941,-2.06183 -0.31841,0 -0.68379,0.19313 -0.36017,0.18791 -0.46979,0.18791 -0.17747,0 -0.31841,-0.14615 -0.14093,-0.14616 -0.14093,-0.33407 0,-0.31319 0.45412,-0.5794 0.48544,-0.28709 1.1588,-0.28709 2.5003,0 2.5003,3.43464 z m -1.05963,1.22666 q 0,-1.32583 -1.24753,-1.32583 -1.3676,0 -1.3676,1.31539 0,1.32584 1.35716,1.32584 0.58984,0 0.9239,-0.34451 0.33407,-0.34973 0.33407,-0.97089 z"
         id="path8032" />
      <path
         d="m 122.27739,155.02414 q 0,0.6577 -0.53242,2.27584 -0.49066,1.49287 -1.7643,3.78438 -0.25577,0.51676 -0.51676,1.03352 -0.22446,0.40193 -0.53243,0.40193 -0.18269,0 -0.33407,-0.1566 -0.14615,-0.15659 -0.14615,-0.3445 0,-0.33929 0.45934,-1.13271 1.05441,-1.83215 1.09095,-1.89479 -1.02309,-1.37804 -1.61815,-2.56816 -0.475,-0.94478 -0.475,-1.27885 0,-0.46979 0.4489,-0.46979 0.28187,0 0.56374,0.49067 0.25578,0.54808 0.50633,1.09616 0.4489,0.95523 1.03352,1.77996 0.38627,-0.99699 0.61594,-2.07749 0.24533,-1.12226 0.25055,-1.14314 0.15138,-0.42803 0.46979,-0.42803 0.48022,0 0.48022,0.6316 z"
         id="path8034" />
      <path
         d="m 135.06074,162.31624 q 0,0.51154 -0.49066,0.51154 -0.34451,0 -0.75688,-0.64204 -0.30275,-0.475 -0.98654,-1.88958 -1.99398,-0.0313 -4.50993,-0.92913 -2.00441,2.09315 -2.72997,2.09315 -0.18791,0 -0.32885,-0.13571 -0.14093,-0.14094 -0.14093,-0.33407 0,-0.21401 0.34972,-0.48544 0.34451,-0.27665 0.68902,-0.54809 0.58984,-0.46978 1.12226,-1.01786 -0.89781,-0.35495 -0.89781,-0.73078 0,-0.21401 0.14094,-0.36538 0.14093,-0.1566 0.33929,-0.1566 0.16181,0 0.475,0.14616 0.5533,0.25055 0.6577,0.29231 2.10359,-2.76129 2.36458,-4.02971 0.0731,-0.43324 0.15137,-0.87171 0.1044,-0.32363 0.49067,-0.32363 0.31841,0 0.42802,0.26621 0.0626,0.1566 0.1044,0.47501 0.047,0.39148 0.0887,0.54808 0.49588,2.02007 1.92089,5.07889 0.24011,-0.005 0.46457,-0.0261 0.20879,-0.0157 0.20879,-0.0157 0.5794,0 0.5794,0.52198 0,0.53764 -0.60028,0.53764 h -0.15138 q 0.20358,0.41759 0.70468,1.27886 0.31319,0.54286 0.31319,0.75166 z m -2.72475,-3.05882 q -0.84039,-1.82172 -1.45633,-3.85745 -0.75165,1.686 -1.8687,3.12145 1.62337,0.59506 3.32503,0.736 z"
         id="path8036" />
      <path
         d="m 140.98524,154.72661 q 0,0.40715 -0.45934,0.40715 -0.0626,0 -0.26621,-0.0209 -0.261,-0.0261 -0.43325,-0.0365 0.6316,0.69424 0.6316,1.64946 0,0.92913 -0.6577,1.52941 -0.65248,0.59506 -1.70166,0.59506 -0.23489,0 -0.75166,-0.0522 -0.44368,0.33407 -0.70467,0.79342 1.01786,-0.12006 1.34671,-0.12006 2.14013,0 2.14013,1.47721 0,0.89259 -0.80907,1.39891 -0.80386,0.51155 -2.24975,0.51155 -0.90825,0 -1.45111,-0.34973 -0.50632,-0.32885 -0.50632,-0.82473 0,-0.17748 0.15137,-0.30797 0.15138,-0.1305 0.35495,-0.1305 0.13572,0 0.27143,0.12006 0.1305,0.14093 0.26099,0.27665 0.25578,0.25577 0.97089,0.25577 0.91869,0 1.43023,-0.24011 0.49589,-0.22967 0.49589,-0.63682 0,-0.58984 -1.3676,-0.58984 -0.32363,0 -0.85605,0.0626 -0.5272,0.0574 -0.73599,0.0574 -0.50633,0 -0.50633,-0.35494 0,-0.49589 0.97611,-1.68601 -0.80385,-0.56896 -0.80385,-1.63902 0,-0.99177 0.70989,-1.69644 0.7099,-0.70468 1.7382,-0.70468 0.21924,0 0.50111,0.0522 0.17225,-0.25577 1.11182,-0.25577 1.16924,0 1.16924,0.45934 z m -1.51897,1.90002 q 0,-0.5794 -0.34973,-0.92913 -0.3445,-0.34973 -0.91347,-0.34973 -0.62637,0 -1.02308,0.42281 -0.39671,0.41758 -0.39671,1.09094 0,1.09094 1.30496,1.09094 0.6577,0 1.01786,-0.34451 0.36017,-0.34972 0.36017,-0.98132 z"
         id="path8038" />
      <path
         d="m 146.05891,158.50054 q 0,1.43024 -0.41759,2.99096 -0.20879,0.78298 -0.62115,0.78298 -0.42281,0 -0.42281,-0.48023 0,-0.10961 0.0104,-0.16181 -0.53242,0.28709 -1.10138,0.28709 -1.00743,0 -1.57639,-0.56896 -0.56374,-0.56896 -0.56374,-1.59205 0,-1.03874 0.61072,-1.64424 0.61072,-0.61072 1.62336,-0.61072 0.88215,0 1.48765,0.58984 -0.0992,-2.06183 -1.52941,-2.06183 -0.3184,0 -0.68379,0.19313 -0.36017,0.18791 -0.46979,0.18791 -0.17747,0 -0.31841,-0.14615 -0.14093,-0.14616 -0.14093,-0.33407 0,-0.31319 0.45412,-0.5794 0.48545,-0.28709 1.1588,-0.28709 2.5003,0 2.5003,3.43464 z m -1.05962,1.22666 q 0,-1.32583 -1.24754,-1.32583 -1.3676,0 -1.3676,1.31539 0,1.32584 1.35716,1.32584 0.58984,0 0.92391,-0.34451 0.33407,-0.34973 0.33407,-0.97089 z"
         id="path8040" />
      <path
         d="m 149.00811,153.7505 q 0,0.74122 -0.72555,0.74122 -0.29231,0 -0.49589,-0.20357 -0.19835,-0.20358 -0.19835,-0.49067 0,-0.31319 0.21923,-0.53242 0.21923,-0.21923 0.53764,-0.21923 0.29753,0 0.48023,0.19313 0.18269,0.19313 0.18269,0.51154 z m -0.22445,1.98876 q 0,3.14755 -0.22445,4.65086 -0.0887,0.6055 -0.19836,0.81429 -0.14093,0.27665 -0.45412,0.27665 -0.20879,0 -0.35495,-0.13571 -0.14616,-0.14094 -0.14616,-0.33407 0,0.0261 0.0835,-0.36017 0.0992,-0.43846 0.16182,-0.99698 0.0835,-0.79342 0.0835,-1.77475 0,-0.42802 -0.0104,-0.90302 -0.0104,-0.47501 -0.0104,-0.51677 0,-0.70467 0.12006,-0.98132 0.12528,-0.30275 0.46978,-0.30275 0.48023,0 0.48023,0.56374 z"
         id="path8042" />
      <path
         d="m 155.50679,158.11428 q 0,1.24232 -0.40714,2.46897 -0.25055,0.7621 -0.62116,0.7621 -0.19836,0 -0.33929,-0.12006 -0.14094,-0.12527 -0.14094,-0.29753 0,-0.047 0.25056,-0.95001 0.25055,-0.90825 0.25055,-1.80084 0,-2.03051 -1.26842,-2.03051 -0.72556,0 -1.1849,0.53765 -0.475,0.5533 -0.475,1.46155 0,0.50632 0.14093,1.41457 0.14616,0.90303 0.14616,1.28929 0,0.89781 -0.51155,0.89781 -0.26099,0 -0.36016,-0.11483 -0.0783,-0.0887 -0.1305,-0.36539 -0.005,-0.32363 -0.1305,-1.8687 -0.21401,-2.161 -0.21401,-3.06925 0,-1.58161 0.61072,-1.58161 0.19835,0 0.33929,0.12528 0.14093,0.12005 0.14093,0.28187 0,0.11483 -0.0626,0.43324 -0.0626,0.31841 -0.0626,0.53764 v 0.12006 q 0.77253,-1.04918 1.87914,-1.04918 1.01786,0 1.5816,0.75687 0.56896,0.75165 0.56896,2.16101 z"
         id="path8044" />
    </g>
  </g>
</svg>
